<?xml version="1.0" encoding="utf-8"?>
<!-- Svg Vector Icons : http://www.onlinewebfonts.com/icon -->
<!DOCTYPE svg PUBLIC "-//W3C//DTD SVG 1.1//EN" "http://www.w3.org/Graphics/SVG/1.1/DTD/svg11.dtd">
<svg version="1.1" xmlns="http://www.w3.org/2000/svg" xmlns:xlink="http://www.w3.org/1999/xlink" x="0px" y="0px" viewBox="0 0 1000 1000" enable-background="new 0 0 1000 1000" xml:space="preserve">
<metadata> Svg Vector Icons : http://www.onlinewebfonts.com/icon </metadata>
<g><g><path d="M916.8,573.2C916.8,803,729.8,990,500,990C270.2,990,83.2,803,83.2,573.2c0-76,20.7-150.4,59.7-215.1l108.7,65.6c-27.1,44.9-41.5,96.6-41.5,149.5C210.2,733,340.2,863,500,863c159.8,0,289.8-130,289.8-289.7c0-154-120.8-279.9-272.6-288.9H455l52.3,132.5c1.8,4.4,0.3,9.5-3.5,12.4c-3.8,2.9-9.1,2.9-12.9-0.1L230.8,229.1c-2.6-2-4.1-5.1-4.1-8.4c0-3.3,1.5-6.4,4.1-8.4L491,12.2c1.9-1.5,4.2-2.2,6.5-2.2c2.3,0,4.5,0.7,6.4,2.1c3.8,2.9,5.2,7.9,3.5,12.4L455,157l45-0.5c16.1,0,69.5,5.4,78.3,7.5C770.8,200.7,916.8,370.2,916.8,573.2z"/></g><g></g><g></g><g></g><g></g><g></g><g></g><g></g><g></g><g></g><g></g><g></g><g></g><g></g><g></g><g></g></g>
</svg>