<?xml version="1.0" standalone="no"?>
<!DOCTYPE svg PUBLIC "-//W3C//DTD SVG 20010904//EN"
 "http://www.w3.org/TR/2001/REC-SVG-20010904/DTD/svg10.dtd">
<svg version="1.0" xmlns="http://www.w3.org/2000/svg"
 width="512.000000pt" height="512.000000pt" viewBox="0 0 512.000000 512.000000"
 preserveAspectRatio="xMidYMid meet">

<g transform="translate(0.000000,512.000000) scale(0.100000,-0.100000)"
fill="#000000" stroke="none">
<path d="M1864 4223 c-12 -2 -34 -18 -50 -34 l-29 -30 -3 -697 c-2 -510 1
-704 9 -725 7 -15 23 -37 37 -47 24 -19 44 -20 732 -20 688 0 708 1 732 20 14
10 30 32 37 47 8 21 11 215 9 725 l-3 698 -33 32 -32 33 -693 1 c-380 1 -702
0 -713 -3z m1256 -778 l0 -555 -560 0 -560 0 0 555 0 555 560 0 560 0 0 -555z"/>
<path d="M2505 3651 c-16 -10 -85 -75 -152 -143 -113 -115 -123 -128 -123
-162 0 -72 40 -115 109 -116 41 0 48 4 132 87 l89 87 89 -87 c84 -83 91 -87
132 -87 69 1 109 44 109 116 0 34 -10 47 -127 166 -163 165 -192 181 -258 139z"/>
<path d="M83 2439 c-17 -5 -43 -23 -57 -40 l-26 -31 2 -710 3 -710 33 -29 32
-29 708 0 c777 0 734 -3 767 60 13 25 15 126 15 717 0 526 -3 694 -13 712 -6
13 -25 34 -40 45 -28 21 -35 21 -710 23 -397 1 -695 -2 -714 -8z m1257 -774
l0 -555 -560 0 -560 0 0 555 0 555 560 0 560 0 0 -555z"/>
<path d="M835 1981 c-16 -10 -85 -75 -152 -143 -123 -124 -123 -125 -123 -172
l0 -48 132 -134 c150 -152 178 -169 242 -139 61 29 84 103 50 155 -9 14 -49
58 -87 97 l-71 73 87 88 c72 75 87 95 87 121 0 44 -25 88 -60 106 -39 20 -69
19 -105 -4z"/>
<path d="M1864 2439 c-16 -5 -41 -20 -55 -35 l-24 -26 0 -715 0 -715 33 -29
32 -29 708 0 c777 0 734 -3 767 60 13 25 15 126 15 717 0 526 -3 694 -13 712
-6 13 -25 34 -40 45 -28 21 -35 21 -710 23 -382 1 -695 -3 -713 -8z m1256
-774 l0 -555 -560 0 -560 0 0 555 0 555 560 0 560 0 0 -555z"/>
<path d="M2283 1870 c-38 -23 -53 -48 -53 -90 0 -49 21 -77 152 -206 130 -128
158 -145 214 -124 33 13 258 231 280 272 31 59 11 123 -48 154 -53 28 -90 12
-184 -78 l-84 -81 -79 76 c-103 101 -138 114 -198 77z"/>
<path d="M3644 2439 c-16 -5 -41 -20 -55 -35 l-24 -26 -3 -696 c-2 -510 1
-704 9 -725 7 -15 23 -37 37 -47 24 -19 44 -20 733 -20 l709 0 32 29 33 29 3
710 2 710 -25 31 c-15 17 -43 35 -63 41 -46 12 -1343 12 -1388 -1z m1256 -774
l0 -555 -560 0 -560 0 0 555 0 555 560 0 560 0 0 -555z"/>
<path d="M4178 1984 c-34 -18 -58 -62 -58 -105 0 -26 15 -46 87 -121 l87 -88
-76 -78 c-42 -42 -81 -87 -87 -99 -29 -56 3 -133 63 -153 62 -20 91 -2 235
144 l131 134 0 48 c0 47 0 47 -127 176 -161 163 -189 178 -255 142z"/>
</g>
</svg>
