<?xml version="1.0" standalone="no"?>
<!DOCTYPE svg PUBLIC "-//W3C//DTD SVG 20010904//EN"
 "http://www.w3.org/TR/2001/REC-SVG-20010904/DTD/svg10.dtd">
<svg version="1.0" xmlns="http://www.w3.org/2000/svg"
 width="512.000000pt" height="512.000000pt" viewBox="0 0 512.000000 512.000000"
 preserveAspectRatio="xMidYMid meet">

<g transform="translate(0.000000,512.000000) scale(0.100000,-0.100000)"
fill="#000000" stroke="none">
<path d="M2370 5114 c-19 -2 -78 -9 -130 -15 -791 -90 -1522 -586 -1924 -1305
-146 -262 -252 -588 -297 -914 -18 -125 -18 -515 0 -640 105 -762 511 -1409
1146 -1826 776 -510 1793 -550 2615 -104 126 69 154 91 180 145 64 132 -42
294 -185 283 -28 -3 -64 -11 -80 -20 -17 -8 -73 -38 -125 -66 -367 -196 -801
-282 -1216 -241 -854 84 -1578 664 -1843 1475 -148 452 -148 896 0 1348 214
653 723 1162 1378 1376 449 147 894 147 1345 -1 488 -160 893 -481 1171 -929
162 -262 273 -595 305 -919 45 -460 -70 -940 -326 -1351 -56 -90 -59 -98 -59
-160 0 -78 26 -127 88 -168 56 -37 153 -39 210 -3 60 37 182 235 276 449 469
1060 169 2297 -734 3025 -364 293 -768 469 -1245 542 -100 15 -472 28 -550 19z"/>
<path d="M1736 3529 c-141 -33 -272 -167 -306 -311 -13 -58 -13 -1238 0 -1296
52 -222 287 -366 504 -308 48 13 186 88 543 296 263 153 504 295 536 315 67
42 140 133 159 198 11 36 14 -9 18 -323 5 -363 5 -365 29 -403 13 -21 42 -50
64 -65 34 -23 52 -27 107 -27 55 0 73 4 107 27 22 15 51 44 64 65 l24 38 0
835 0 835 -24 38 c-13 21 -42 50 -64 65 -34 23 -52 27 -107 27 -55 0 -73 -4
-107 -27 -22 -15 -51 -44 -64 -65 -24 -38 -24 -40 -29 -403 -3 -223 -8 -352
-13 -332 -12 46 -81 146 -125 180 -20 16 -219 135 -442 264 -223 130 -449 261
-503 293 -150 88 -254 111 -371 84z m579 -668 c264 -154 481 -284 483 -289 2
-8 -913 -549 -961 -568 -16 -6 -17 30 -17 565 0 314 3 571 8 571 4 0 223 -126
487 -279z m882 -323 c-2 -18 -4 -4 -4 32 0 36 2 50 4 33 2 -18 2 -48 0 -65z"/>
</g>
</svg>
