<?xml version="1.0" encoding="utf-8"?>
<!-- Svg Vector Icons : http://www.onlinewebfonts.com/icon -->
<!DOCTYPE svg PUBLIC "-//W3C//DTD SVG 1.1//EN" "http://www.w3.org/Graphics/SVG/1.1/DTD/svg11.dtd">
<svg version="1.1" xmlns="http://www.w3.org/2000/svg" xmlns:xlink="http://www.w3.org/1999/xlink" x="0px" y="0px" viewBox="0 0 1000 1000" enable-background="new 0 0 1000 1000" xml:space="preserve">
<metadata> Svg Vector Icons : http://www.onlinewebfonts.com/icon </metadata>
<g><path d="M493.4,10.1C222.9,13.7,6.4,236,10,506.6C13.6,777,236,993.5,506.6,989.9c270.6-3.6,487-226,483.4-496.5C986.4,222.9,764,6.5,493.4,10.1z M547.8,173.4c49.8,0,64.5,28.9,64.5,61.9c0,41.3-33.1,79.5-89.5,79.5c-47.2,0-69.6-23.8-68.3-63C454.5,218.7,482.2,173.4,547.8,173.4z M420,806.2c-34,0-59-20.6-35.2-111.5l39-161c6.8-25.8,7.9-36.2,0-36.2c-10.2,0-54.4,17.8-80.6,35.4l-17-27.8c82.8-69.1,178-109.7,218.8-109.7c34,0,39.7,40.3,22.7,102.2L523.1,667c-7.9,30-4.5,40.3,3.4,40.3c10.2,0,43.7-12.4,76.6-38.2l19.2,25.8C541.8,775.4,454,806.3,420,806.2L420,806.2z"/></g>
</svg>
