<?xml version="1.0" standalone="no"?>
<!DOCTYPE svg PUBLIC "-//W3C//DTD SVG 20010904//EN"
 "http://www.w3.org/TR/2001/REC-SVG-20010904/DTD/svg10.dtd">
<svg version="1.0" xmlns="http://www.w3.org/2000/svg"
 width="512.000000pt" height="512.000000pt" viewBox="0 0 512.000000 512.000000"
 preserveAspectRatio="xMidYMid meet">

<g transform="translate(0.000000,512.000000) scale(0.100000,-0.100000)"
fill="#000000" stroke="none">
<path d="M2380 5114 c-19 -2 -78 -9 -130 -14 -330 -36 -695 -160 -990 -336
-375 -224 -680 -529 -904 -904 -175 -292 -291 -632 -338 -990 -16 -123 -16
-497 0 -620 47 -358 163 -698 338 -990 224 -375 529 -680 904 -904 670 -400
1508 -465 2245 -174 112 44 352 166 401 203 50 38 78 105 71 172 -11 101 -79
169 -180 180 -50 5 -58 2 -187 -65 -338 -176 -627 -256 -975 -269 -950 -37
-1827 576 -2124 1483 -96 294 -130 585 -101 875 33 330 156 694 320 943 291
445 681 750 1156 905 452 148 896 148 1348 0 648 -212 1163 -727 1375 -1375
201 -615 125 -1249 -219 -1814 -75 -124 -84 -169 -50 -248 29 -66 88 -110 159
-119 39 -4 60 -1 103 19 46 21 62 36 100 95 327 496 472 1122 398 1713 -99
782 -555 1475 -1240 1884 -289 173 -634 291 -980 336 -88 12 -438 21 -500 14z"/>
<path d="M1942 3649 c-46 -14 -109 -80 -122 -128 -7 -27 -10 -335 -8 -983 l3
-943 24 -38 c13 -21 42 -50 64 -65 34 -23 52 -27 107 -27 55 0 73 4 107 27 22
15 51 44 64 65 l24 38 0 965 0 965 -24 38 c-47 76 -151 113 -239 86z"/>
<path d="M3042 3649 c-46 -14 -109 -80 -122 -128 -7 -27 -10 -335 -8 -983 l3
-943 24 -38 c13 -21 42 -50 64 -65 34 -23 52 -27 107 -27 55 0 73 4 107 27 22
15 51 44 64 65 l24 38 0 965 0 965 -24 38 c-47 76 -151 113 -239 86z"/>
</g>
</svg>
