<?xml version="1.0" standalone="no"?>
<!DOCTYPE svg PUBLIC "-//W3C//DTD SVG 20010904//EN"
 "http://www.w3.org/TR/2001/REC-SVG-20010904/DTD/svg10.dtd">
<svg version="1.0" xmlns="http://www.w3.org/2000/svg"
 width="512.000000pt" height="512.000000pt" viewBox="0 0 512.000000 512.000000"
 preserveAspectRatio="xMidYMid meet">

<g transform="translate(0.000000,512.000000) scale(0.100000,-0.100000)"
fill="#000000" stroke="none">
<path d="M280 4074 c-109 -29 -199 -106 -248 -212 l-27 -57 0 -1245 0 -1245
33 -67 c40 -82 119 -157 200 -190 l57 -23 2265 0 2265 0 57 23 c81 33 160 108
200 190 l33 67 0 1245 0 1245 -33 67 c-40 82 -119 157 -200 190 l-57 23 -2245
2 c-1953 2 -2252 0 -2300 -13z m4565 -161 c51 -27 79 -57 104 -113 20 -44 21
-60 21 -991 l0 -945 -27 -55 c-31 -60 -86 -105 -149 -119 -52 -13 -4416 -13
-4468 0 -63 14 -118 59 -148 119 l-28 55 0 945 c0 931 1 947 21 991 32 70 75
108 149 131 14 4 1028 7 2255 6 l2230 -2 40 -22z m-4638 -2338 c26 -14 72 -29
102 -35 73 -14 4428 -14 4500 0 43 8 93 27 153 58 5 2 8 -50 8 -115 0 -97 -4
-126 -21 -163 -25 -56 -53 -86 -104 -113 l-40 -22 -2245 0 -2245 0 -40 22
c-51 27 -79 57 -104 113 -17 37 -21 66 -21 163 0 64 2 117 4 117 2 0 26 -11
53 -25z"/>
<path d="M4297 3783 c-4 -3 -7 -37 -7 -75 l0 -68 75 0 75 0 0 75 0 75 -68 0
c-38 0 -72 -3 -75 -7z"/>
<path d="M4597 3783 c-4 -3 -7 -37 -7 -75 l0 -68 75 0 75 0 0 75 0 75 -68 0
c-38 0 -72 -3 -75 -7z"/>
<path d="M587 3233 l-268 -388 145 -3 146 -3 2 -262 3 -262 242 -3 243 -2 2
262 3 263 143 3 c78 1 142 5 142 8 0 7 -507 744 -524 762 -9 10 -69 -70 -279
-375z m398 -60 l123 -178 -76 -5 -77 -5 -3 -263 -2 -263 -93 3 -92 3 -3 263
-2 262 -75 0 c-41 0 -75 3 -75 6 0 9 244 362 248 359 2 -2 59 -84 127 -182z"/>
<path d="M1699 3176 c-157 -42 -217 -233 -112 -355 53 -62 83 -75 202 -82 92
-5 106 -8 123 -29 22 -27 23 -68 2 -98 -15 -21 -21 -22 -180 -22 l-164 0 0
-81 0 -82 173 5 c149 4 177 7 212 25 168 88 169 319 1 405 -28 14 -67 22 -137
25 -105 6 -121 14 -134 64 -5 20 0 33 18 55 l25 29 161 3 161 3 0 75 0 74
-152 -1 c-88 0 -173 -6 -199 -13z"/>
<path d="M2230 2810 l0 -380 75 0 74 0 3 153 3 152 125 0 125 0 3 -152 3 -153
74 0 75 0 0 380 0 380 -75 0 -75 0 0 -150 0 -150 -130 0 -130 0 0 150 0 150
-75 0 -75 0 0 -380z"/>
<path d="M2950 3115 l0 -74 78 -3 77 -3 3 -222 2 -222 -77 -3 -78 -3 0 -75 0
-75 228 -3 227 -2 0 80 0 80 -75 0 -75 0 0 225 0 225 75 0 75 0 0 75 0 75
-230 0 -230 0 0 -75z"/>
<path d="M3580 2810 l0 -380 75 0 75 0 0 155 0 155 110 0 110 0 0 75 0 75
-110 0 -110 0 0 75 0 75 160 0 160 0 0 75 0 75 -235 0 -235 0 0 -380z"/>
<path d="M4217 3183 c-4 -3 -7 -37 -7 -75 l0 -68 115 0 115 0 0 -305 0 -305
75 0 75 0 0 305 0 305 110 0 110 0 0 75 0 75 -293 0 c-162 0 -297 -3 -300 -7z"/>
<path d="M610 2085 l0 -75 248 2 247 3 3 73 3 72 -251 0 -250 0 0 -75z"/>
</g>
</svg>
