<?xml version="1.0" standalone="no"?>
<!DOCTYPE svg PUBLIC "-//W3C//DTD SVG 20010904//EN"
 "http://www.w3.org/TR/2001/REC-SVG-20010904/DTD/svg10.dtd">
<svg version="1.0" xmlns="http://www.w3.org/2000/svg"
 width="512.000000pt" height="512.000000pt" viewBox="0 0 512.000000 512.000000"
 preserveAspectRatio="xMidYMid meet">

<g transform="translate(0.000000,512.000000) scale(0.100000,-0.100000)"
fill="#000000" stroke="none">
<path d="M430 2640 c0 -532 1 -563 19 -598 25 -48 66 -87 113 -106 33 -14 248
-16 1998 -16 1750 0 1965 2 1998 16 49 20 90 60 113 109 17 37 19 76 19 598
l0 557 -210 0 -210 0 0 -425 0 -425 -1710 0 -1710 0 0 425 0 425 -210 0 -210
0 0 -560z"/>
</g>
</svg>
