<?xml version="1.0" standalone="no"?>
<!DOCTYPE svg PUBLIC "-//W3C//DTD SVG 20010904//EN"
 "http://www.w3.org/TR/2001/REC-SVG-20010904/DTD/svg10.dtd">
<svg version="1.0" xmlns="http://www.w3.org/2000/svg"
 width="512.000000pt" height="512.000000pt" viewBox="0 0 512.000000 512.000000"
 preserveAspectRatio="xMidYMid meet">

<g transform="translate(0.000000,512.000000) scale(0.100000,-0.100000)"
fill="#000000" stroke="none">
<path d="M615 5106 c-40 -17 -82 -67 -95 -114 -8 -24 -10 -135 -8 -322 3 -273
4 -286 25 -320 12 -20 40 -46 61 -58 38 -21 49 -22 316 -22 l276 0 0 -250 c0
-143 5 -271 11 -300 14 -65 59 -113 122 -129 55 -13 533 -15 591 -1 54 12 87
38 114 90 21 43 22 54 22 317 l0 272 288 3 c282 3 288 3 320 26 18 13 41 41
52 62 19 36 20 60 20 333 0 287 -1 295 -23 337 -16 30 -37 51 -67 67 l-43 23
-976 0 c-789 -1 -982 -3 -1006 -14z m575 -411 l0 -255 -255 0 -255 0 0 255 0
255 255 0 255 0 0 -255z m690 0 l0 -255 -255 0 -255 0 0 255 0 255 255 0 255
0 0 -255z m680 0 l0 -255 -255 0 -255 0 0 255 0 255 255 0 255 0 0 -255z
m-685 -685 l0 -255 -252 -3 -253 -2 0 260 0 260 253 -2 252 -3 0 -255z"/>
<path d="M3955 5095 c-24 -24 -25 -27 -25 -185 0 -89 4 -170 10 -180 5 -10 25
-24 44 -30 28 -9 40 -8 65 4 44 23 54 68 50 230 -4 137 -4 138 -32 162 -37 31
-81 31 -112 -1z"/>
<path d="M3282 5023 c-7 -3 -19 -18 -27 -33 -13 -24 -15 -100 -15 -467 0 -330
3 -444 13 -463 27 -54 94 -63 137 -20 19 19 20 35 20 483 l0 464 -23 21 c-22
21 -73 28 -105 15z"/>
<path d="M2942 4853 c-32 -13 -42 -61 -42 -203 0 -142 6 -172 39 -197 27 -21
79 -15 106 12 24 24 25 27 25 185 0 158 -1 161 -25 185 -23 24 -69 32 -103 18z"/>
<path d="M3675 4501 c-87 -54 -94 -82 -95 -398 l0 -263 -269 0 c-166 0 -281
-4 -298 -11 -42 -15 -92 -68 -103 -109 -6 -21 -10 -278 -10 -655 0 -580 2
-623 19 -660 44 -96 74 -104 399 -105 325 0 356 6 408 85 17 26 19 55 24 315
l5 285 255 0 255 0 3 -722 2 -722 -282 -3 c-275 -3 -284 -4 -320 -26 -20 -13
-47 -40 -60 -60 -22 -36 -23 -45 -26 -320 l-3 -282 -277 0 c-268 0 -278 -1
-316 -23 -25 -14 -48 -39 -63 -66 -22 -43 -23 -50 -23 -325 0 -155 5 -297 10
-316 11 -41 61 -94 103 -109 19 -8 339 -11 998 -11 801 0 975 2 1002 14 39 16
82 61 96 99 8 20 11 537 11 1680 0 1589 -1 1654 -19 1693 -10 23 -34 52 -52
65 -34 24 -36 24 -321 27 l-288 3 0 392 c0 226 -4 407 -10 426 -11 39 -51 86
-92 107 -22 11 -89 14 -330 14 -277 0 -306 -2 -333 -19z m595 -406 l0 -255
-260 0 -260 0 0 255 0 255 260 0 260 0 0 -255z m-690 -680 l0 -255 -255 0
-255 0 0 255 0 255 255 0 255 0 0 -255z m690 0 l0 -255 -260 0 -260 0 0 248
c0 137 3 252 7 255 3 4 120 7 260 7 l253 0 0 -255z m680 -260 l0 -255 -255 0
-255 0 0 255 0 255 255 0 255 0 0 -255z m-1370 -425 l0 -260 -252 2 -253 3 -3
258 -2 257 255 0 255 0 0 -260z m1370 -255 l0 -255 -255 0 -255 0 0 255 0 255
255 0 255 0 0 -255z m0 -680 l0 -255 -255 0 -255 0 0 255 0 255 255 0 255 0 0
-255z m-685 -685 l0 -255 -255 0 -255 0 -3 245 c-1 134 0 250 3 257 3 11 59
13 257 11 l253 -3 0 -255z m683 -2 l2 -258 -255 0 -255 0 0 260 0 260 253 -2
252 -3 3 -257z m-1368 -683 l0 -255 -255 0 -255 0 0 255 0 255 255 0 255 0 0
-255z m690 0 l0 -255 -257 2 -258 3 -3 253 -2 252 260 0 260 0 0 -255z m680 0
l0 -255 -255 0 -255 0 0 255 0 255 255 0 255 0 0 -255z"/>
<path d="M2353 4085 c-52 -22 -55 -45 -51 -482 l3 -391 24 -26 c30 -32 78 -34
115 -5 l26 20 0 423 0 423 -22 20 c-32 29 -58 34 -95 18z"/>
<path d="M795 3985 l-25 -24 0 -376 0 -376 25 -24 c27 -27 79 -33 106 -12 37
28 39 48 39 417 l0 362 -29 29 c-38 37 -82 39 -116 4z"/>
<path d="M1566 3389 c-26 -20 -26 -22 -26 -145 0 -110 2 -126 20 -144 43 -43
107 -33 135 21 13 25 16 54 13 134 -3 93 -5 106 -27 129 -30 32 -78 34 -115 5z"/>
<path d="M785 2886 c-39 -18 -79 -63 -94 -105 -7 -22 -11 -127 -11 -297 l0
-264 -262 0 c-145 0 -279 -5 -298 -10 -41 -11 -94 -61 -109 -103 -8 -19 -11
-339 -11 -998 0 -801 2 -975 14 -1002 16 -39 61 -82 99 -96 39 -15 1955 -15
1994 0 42 15 92 68 103 109 5 19 10 161 10 316 0 275 -1 282 -23 325 -15 27
-38 52 -63 66 -38 22 -48 23 -316 23 l-278 0 0 260 0 259 288 3 c285 3 287 3
321 27 18 13 42 42 52 65 17 39 19 78 19 669 0 511 -3 634 -14 660 -16 39 -61
82 -99 96 -45 17 -1283 14 -1322 -3z m585 -411 l0 -255 -260 0 -260 0 0 255 0
255 260 0 260 0 0 -255z m680 0 l0 -255 -255 0 -255 0 0 255 0 255 255 0 255
0 0 -255z m-1370 -680 l0 -255 -255 0 -255 0 0 255 0 255 255 0 255 0 0 -255z
m688 -2 l2 -253 -260 0 -260 0 0 255 0 255 258 -2 257 -3 3 -252z m682 2 l0
-255 -255 0 -255 0 0 255 0 255 255 0 255 0 0 -255z m-1370 -685 l0 -260 -255
0 -255 0 0 253 c0 140 3 257 7 260 3 4 118 7 255 7 l248 0 0 -260z m685 0 l0
-255 -255 0 -255 0 -3 245 c-1 134 0 250 3 257 3 11 59 13 257 11 l253 -3 0
-255z m-685 -685 l0 -255 -255 0 -255 0 0 255 0 255 255 0 255 0 0 -255z m688
3 l-3 -253 -257 -3 -258 -2 0 255 0 255 260 0 260 0 -2 -252z m682 -3 l0 -255
-255 0 -255 0 0 255 0 255 255 0 255 0 0 -255z"/>
<path d="M3865 2275 l-25 -24 0 -246 0 -246 25 -24 c16 -17 35 -25 60 -25 25
0 44 8 60 25 l25 24 0 246 0 246 -25 24 c-16 17 -35 25 -60 25 -25 0 -44 -8
-60 -25z"/>
<path d="M3185 2105 l-25 -24 0 -374 c0 -420 -1 -412 72 -424 32 -5 41 -1 68
25 l30 30 0 362 c0 369 -2 389 -39 417 -27 21 -79 15 -106 -12z"/>
</g>
</svg>
