<?xml version="1.0" standalone="no"?>
<!DOCTYPE svg PUBLIC "-//W3C//DTD SVG 20010904//EN"
 "http://www.w3.org/TR/2001/REC-SVG-20010904/DTD/svg10.dtd">
<svg version="1.0" xmlns="http://www.w3.org/2000/svg"
 width="512.000000pt" height="512.000000pt" viewBox="0 0 512.000000 512.000000"
 preserveAspectRatio="xMidYMid meet">

<g transform="translate(0.000000,512.000000) scale(0.100000,-0.100000)"
fill="#000000" stroke="none">
<path d="M51 5106 c-53 -29 -50 32 -51 -1314 0 -1362 -3 -1294 55 -1320 37
-17 1253 -17 1290 0 56 25 55 18 55 643 l0 575 575 0 c625 0 618 -1 643 55 17
37 17 1283 0 1320 -26 58 41 55 -1305 55 -1008 -1 -1242 -3 -1262 -14z m1149
-701 l0 -515 -75 0 c-86 0 -125 -15 -143 -55 -15 -33 -15 -57 0 -90 18 -40 57
-55 143 -55 l75 0 0 -515 0 -515 -500 0 -500 0 0 515 0 515 80 0 c73 0 82 2
111 28 26 24 32 36 32 72 0 36 -6 48 -32 72 -29 26 -38 28 -111 28 l-80 0 0
515 0 515 500 0 500 0 0 -515z m1230 0 l0 -515 -515 0 -515 0 0 515 0 515 515
0 515 0 0 -515z"/>
<path d="M651 3876 c-87 -48 -50 -186 49 -186 51 0 100 49 100 99 0 75 -83
124 -149 87z"/>
<path d="M3741 3876 c-51 -28 -50 -20 -51 -638 l0 -578 -590 0 c-641 0 -633 1
-658 -55 -9 -19 -12 -176 -12 -600 l0 -575 -1175 0 c-889 0 -1180 -3 -1200
-12 -56 -25 -55 -13 -55 -703 0 -690 -1 -678 55 -703 20 -9 604 -12 2506 -12
2699 0 2520 -4 2547 55 9 20 12 466 12 1891 0 2029 3 1906 -55 1932 -40 18
-1291 16 -1324 -2z m1179 -701 l0 -515 -515 0 -515 0 0 515 0 515 515 0 515 0
0 -515z m-1230 -1230 l0 -515 -530 0 -530 0 0 515 0 515 530 0 530 0 0 -515z
m1230 0 l0 -515 -515 0 -515 0 0 515 0 515 515 0 515 0 0 -515z m-3720 -1230
l0 -515 -500 0 -500 0 0 515 0 515 500 0 500 0 0 -515z m1230 0 l0 -515 -515
0 -515 0 0 515 0 515 515 0 515 0 0 -515z m1260 0 l0 -515 -530 0 -530 0 0
515 0 515 530 0 530 0 0 -515z m1230 0 l0 -515 -515 0 -515 0 0 515 0 515 515
0 515 0 0 -515z"/>
</g>
</svg>
