<?xml version="1.0" standalone="no"?>
<!DOCTYPE svg PUBLIC "-//W3C//DTD SVG 20010904//EN"
 "http://www.w3.org/TR/2001/REC-SVG-20010904/DTD/svg10.dtd">
<svg version="1.0" xmlns="http://www.w3.org/2000/svg"
 width="512.000000pt" height="512.000000pt" viewBox="0 0 512.000000 512.000000"
 preserveAspectRatio="xMidYMid meet">

<g transform="translate(0.000000,512.000000) scale(0.100000,-0.100000)"
fill="#000000" stroke="none">
<path d="M1947 4216 c-55 -20 -103 -61 -134 -114 l-28 -47 0 -600 c0 -600 0
-600 22 -641 29 -54 101 -117 151 -132 56 -17 1148 -17 1204 0 50 15 122 78
151 132 22 41 22 41 22 641 l0 600 -28 47 c-31 53 -79 94 -134 114 -55 19
-1171 19 -1226 0z m1193 -141 c62 -32 61 -19 58 -636 l-3 -561 -37 -34 -38
-34 -560 0 -560 0 -38 34 -37 34 -3 559 c-2 415 1 565 9 587 7 15 26 37 43 47
29 18 61 19 584 19 475 0 557 -2 582 -15z"/>
<path d="M2040 3860 c-11 -11 -20 -31 -20 -45 0 -14 45 -188 101 -388 71 -255
107 -369 121 -384 17 -18 33 -23 69 -23 78 0 89 16 167 244 38 110 71 195 74
190 3 -5 29 -94 57 -199 64 -233 65 -235 171 -235 66 0 79 3 98 23 28 30 226
739 217 776 -14 54 -59 76 -105 51 -22 -12 -31 -39 -131 -407 -41 -150 -76
-273 -79 -273 -5 0 -28 83 -135 490 -23 85 -47 120 -85 120 -31 0 -68 -38 -75
-78 -9 -52 -161 -477 -167 -466 -3 5 -40 139 -84 299 -48 179 -85 296 -96 307
-24 24 -73 23 -98 -2z"/>
<path d="M167 2436 c-55 -20 -103 -61 -134 -114 l-28 -47 -3 -583 c-2 -376 1
-596 8 -621 15 -56 62 -116 117 -148 l48 -28 600 0 c600 0 600 0 641 22 54 29
117 101 132 151 17 56 17 1148 0 1204 -15 50 -78 122 -132 151 -41 22 -44 22
-626 24 -471 2 -592 0 -623 -11z m1219 -168 l34 -38 0 -560 0 -560 -34 -38
-34 -37 -561 -3 c-617 -3 -604 -4 -636 58 -23 44 -23 1116 0 1160 32 61 15 60
633 57 l564 -2 34 -37z"/>
<path d="M763 2148 c-12 -13 -31 -60 -43 -108 -25 -100 -77 -255 -132 -400
-22 -58 -53 -139 -68 -180 -15 -41 -39 -107 -54 -147 -26 -68 -26 -74 -11
-102 16 -32 50 -47 82 -37 21 7 50 59 86 156 l25 65 140 3 140 3 22 -73 c11
-40 24 -82 27 -93 9 -33 45 -65 73 -65 31 0 70 37 70 66 0 11 -27 107 -60 214
-70 223 -130 442 -160 580 -23 104 -46 140 -90 140 -15 0 -36 -10 -47 -22z
m86 -458 c18 -63 34 -123 37 -132 5 -16 -4 -18 -89 -18 l-94 0 49 130 c26 72
48 135 48 142 0 32 20 -17 49 -122z"/>
<path d="M1947 2436 c-55 -20 -103 -61 -134 -114 l-28 -47 0 -605 0 -605 28
-47 c31 -53 79 -94 134 -114 55 -19 1171 -19 1226 0 55 20 103 61 134 114 l28
47 0 605 0 605 -28 47 c-31 53 -79 94 -134 114 -55 19 -1171 19 -1226 0z
m1193 -141 c61 -32 60 -21 60 -625 0 -604 1 -593 -60 -625 -44 -23 -1116 -23
-1160 0 -61 32 -60 21 -60 625 0 602 -1 593 58 624 41 23 1119 23 1162 1z"/>
<path d="M2464 2146 c-190 -89 -225 -316 -71 -470 34 -34 60 -49 104 -61 120
-33 137 -41 156 -67 26 -36 34 -116 14 -154 -23 -44 -60 -74 -100 -81 -50 -8
-79 1 -127 42 -50 42 -81 44 -109 9 -31 -39 -26 -60 27 -113 163 -163 428 -64
467 176 8 52 -17 154 -50 205 -32 48 -93 83 -180 103 -88 20 -108 33 -134 88
-27 56 -27 96 2 138 52 78 146 89 217 25 47 -42 68 -45 104 -11 39 36 34 70
-15 116 -84 77 -209 100 -305 55z"/>
<path d="M3750 2441 c-78 -24 -157 -99 -178 -169 -17 -56 -17 -1148 0 -1204
15 -50 78 -122 132 -151 41 -22 41 -22 641 -22 l600 0 48 28 c55 32 102 92
117 148 7 25 10 245 8 621 l-3 583 -28 47 c-31 53 -79 94 -134 114 -30 10
-156 13 -608 13 -313 -1 -581 -4 -595 -8z m1170 -146 c61 -32 60 -21 60 -625
0 -605 1 -593 -60 -625 -26 -14 -102 -15 -591 -13 l-561 3 -34 37 -34 38 0
559 0 559 27 32 c14 18 36 36 47 40 12 5 268 9 569 9 471 1 552 -1 577 -14z"/>
<path d="M4043 2068 l-23 -24 0 -375 0 -376 24 -22 c24 -22 30 -23 158 -19
103 4 145 9 185 25 74 29 147 86 193 150 55 78 75 141 75 243 0 102 -20 165
-75 243 -46 64 -119 121 -193 150 -41 16 -82 21 -187 25 -132 4 -135 4 -157
-20z m326 -153 c99 -54 146 -133 146 -245 0 -58 -5 -84 -22 -116 -56 -105
-134 -155 -255 -162 l-78 -5 0 283 0 283 78 -5 c61 -3 89 -11 131 -33z"/>
</g>
</svg>
